<svg width="999" height="336" viewBox="0 0 999 336" fill="none" xmlns="http://www.w3.org/2000/svg">
<g clip-path="url(#clip0_14_192)">
<rect width="999" height="336" fill="#000F1C"/>
<circle cx="500.908" cy="164.756" r="62.8181" fill="#FFA700"/>
<rect x="519.149" y="198.286" width="54.7313" height="8.37574" rx="4" transform="rotate(-28 519.149 198.286)" fill="#000F1C"/>
<path d="M444.748 211.867C443.711 209.916 444.452 207.494 446.402 206.457L565.06 143.366C567.01 142.329 569.432 143.069 570.469 145.02L571.531 147.017C572.568 148.967 571.828 151.389 569.877 152.427L451.22 215.518C449.27 216.555 446.848 215.814 445.81 213.864L444.748 211.867Z" fill="#000F1C"/>
<rect x="434.231" y="180.969" width="85.5176" height="10.2621" rx="4" transform="rotate(-28 434.231 180.969)" fill="#000F1C"/>
<rect x="471.593" y="143.658" width="77.6354" height="8.37574" rx="4" transform="rotate(-28 471.593 143.658)" fill="#000F1C"/>
<g clip-path="url(#clip1_14_192)">
<path d="M503.629 35.0004C503.419 34.8063 503.207 34.6205 502.992 34.4411C502.911 34.3737 502.831 34.3033 502.75 34.2378C502.459 34.0041 502.164 33.7812 501.866 33.5749C501.826 33.547 501.785 33.5235 501.744 33.4957C501.484 33.3197 501.221 33.1554 500.955 33.0009C500.859 32.9452 500.763 32.8939 500.666 32.8406C500.443 32.7184 500.217 32.604 499.989 32.4974C499.895 32.4529 499.801 32.407 499.706 32.3659C499.391 32.228 499.074 32.1009 498.753 31.9939C498.432 32.1005 498.115 32.228 497.8 32.3659C497.705 32.407 497.612 32.4529 497.517 32.4974C497.289 32.604 497.064 32.7184 496.84 32.8406C496.743 32.8929 496.647 32.9452 496.551 33.0009C496.286 33.1549 496.023 33.3192 495.763 33.4952C495.723 33.5226 495.681 33.5465 495.64 33.5744C495.342 33.7802 495.048 34.0031 494.757 34.2368C494.674 34.3028 494.594 34.3732 494.512 34.4416C494.299 34.6201 494.087 34.8053 493.878 34.9984C493.788 35.082 493.697 35.1656 493.608 35.2522C493.383 35.4682 493.161 35.6941 492.942 35.9268C492.886 35.9869 492.828 36.0431 492.771 36.1042C492.5 36.4 492.233 36.709 491.97 37.0297C491.904 37.1103 491.84 37.1954 491.774 37.2775C491.575 37.5273 491.379 37.7835 491.185 38.0465C491.104 38.157 491.024 38.2684 490.943 38.3809C490.752 38.6502 490.564 38.9274 490.379 39.2105C490.318 39.3034 490.256 39.3928 490.196 39.4872C489.956 39.8631 489.721 40.2498 489.491 40.6477C489.445 40.7284 489.4 40.813 489.354 40.8946C489.17 41.2187 488.99 41.5502 488.814 41.8885C488.745 42.0214 488.677 42.1564 488.609 42.2918C488.449 42.6081 488.293 42.9302 488.14 43.2573C488.082 43.3805 488.024 43.5017 487.967 43.6259C487.763 44.0732 487.565 44.5283 487.373 44.9947C487.349 45.0534 487.327 45.1145 487.303 45.1736C487.136 45.5857 486.974 46.0047 486.817 46.4305C486.762 46.5796 486.709 46.7302 486.655 46.8812C486.527 47.241 486.402 47.6057 486.281 47.9753C486.232 48.1249 486.181 48.273 486.134 48.4241C485.973 48.9325 485.816 49.4463 485.668 49.9708C484.295 54.8424 483.518 60.4051 483.517 66.3091C483.517 67.9576 483.582 69.5772 483.7 71.165C483.367 71.4598 483.026 71.7433 482.708 72.0621C475.845 78.9247 474.322 89.0813 478.089 97.4335C479.164 94.1704 480.978 91.0959 483.573 88.5006C484.555 87.5189 485.612 86.6644 486.715 85.9003C487.354 87.6695 488.074 89.3248 488.87 90.8403L492.619 90.8403C492.608 91.1394 492.596 91.4376 492.596 91.7417C492.596 98.6806 495.255 106.446 498.752 107.611C502.25 106.446 504.908 98.6806 504.908 91.7417C504.908 91.4376 504.896 91.1389 504.885 90.8403L508.634 90.8403C509.563 89.0715 510.388 87.1112 511.1 85.0018C512.725 85.9575 514.267 87.1063 515.661 88.501C517.66 90.4995 519.183 92.7859 520.28 95.2185C522.875 87.3405 521.062 78.3283 514.796 72.0625C514.477 71.7438 514.138 71.4608 513.804 71.1655C513.922 69.5777 513.986 67.9585 513.987 66.3096C513.987 59.7686 513.03 53.6529 511.37 48.4246C511.322 48.274 511.272 48.1254 511.223 47.9758C511.102 47.6072 510.978 47.2425 510.849 46.8832C510.795 46.7316 510.741 46.5801 510.686 46.43C510.53 46.0047 510.368 45.5857 510.202 45.1751C510.178 45.1159 510.155 45.0543 510.131 44.9947C509.94 44.5278 509.741 44.0727 509.537 43.6254C509.48 43.5012 509.422 43.381 509.365 43.2587C509.211 42.9302 509.054 42.6071 508.894 42.2893C508.827 42.1554 508.759 42.0219 508.69 41.8899C508.513 41.5507 508.333 41.2187 508.149 40.8936C508.104 40.8125 508.059 40.7279 508.013 40.6477C507.784 40.2493 507.548 39.8631 507.308 39.4872C507.249 39.3933 507.186 39.3038 507.126 39.211C506.94 38.9274 506.752 38.6502 506.56 38.3804C506.48 38.2679 506.4 38.1565 506.319 38.0465C506.126 37.783 505.93 37.5268 505.73 37.2775C505.665 37.1954 505.6 37.1103 505.534 37.0292C505.271 36.709 505.004 36.4 504.733 36.1042C504.677 36.0431 504.619 35.9869 504.563 35.9273C504.343 35.6941 504.121 35.4687 503.896 35.2517C503.809 35.1666 503.719 35.0835 503.629 35.0004ZM505.345 63.7504C505.345 67.3905 502.394 70.3417 498.754 70.3417C495.113 70.3417 492.771 67.3905 492.771 63.7504C492.771 60.1103 495.113 57.1591 498.754 57.1591C502.394 57.1591 505.344 60.1098 505.345 63.7504Z" fill="#FFA700"/>
<path d="M536.852 95.0968L537.844 97.5258L540.273 98.5175L537.844 99.5092L536.852 101.938L535.861 99.5092L533.432 98.5175L535.861 97.5258L536.852 95.0968Z" fill="#FFA700"/>
</g>
<path d="M550.535 13L554.502 22.716L564.218 26.6828L554.502 30.6497L550.535 40.3656L546.568 30.6497L536.852 26.6828L546.568 22.716L550.535 13Z" fill="#FFA700"/>
<path d="M454.755 50.6276L456.739 55.4856L461.597 57.469L456.739 59.4524L454.755 64.3104L452.772 59.4524L447.914 57.469L452.772 55.4856L454.755 50.6276Z" fill="#FFA700"/>
<circle cx="437.652" cy="88.2555" r="6.84141" fill="#FE703C"/>
<circle cx="567.639" cy="112.2" r="3.4207" fill="#FE703C"/>
<circle cx="562.508" cy="62.6004" r="5.13106" fill="#FE703C"/>
<path d="M403.688 275.145C401.475 275.145 399.382 274.865 397.408 274.305C395.462 273.745 393.835 272.985 392.528 272.025L394.328 267.145C395.582 268.025 397.008 268.718 398.608 269.225C400.235 269.732 401.928 269.985 403.688 269.985C405.608 269.985 406.982 269.692 407.808 269.105C408.662 268.492 409.088 267.732 409.088 266.825C409.088 266.052 408.795 265.438 408.208 264.985C407.622 264.532 406.595 264.145 405.128 263.825L400.608 262.865C395.568 261.798 393.048 259.185 393.048 255.025C393.048 253.238 393.528 251.678 394.488 250.345C395.448 248.985 396.782 247.932 398.488 247.185C400.222 246.438 402.222 246.065 404.488 246.065C406.435 246.065 408.262 246.345 409.968 246.905C411.675 247.465 413.088 248.252 414.208 249.265L412.408 253.825C410.222 252.092 407.568 251.225 404.448 251.225C402.768 251.225 401.462 251.558 400.528 252.225C399.622 252.865 399.168 253.705 399.168 254.745C399.168 255.518 399.448 256.145 400.008 256.625C400.568 257.105 401.542 257.492 402.928 257.785L407.448 258.745C412.622 259.865 415.208 262.398 415.208 266.345C415.208 268.105 414.728 269.652 413.768 270.985C412.835 272.292 411.502 273.318 409.768 274.065C408.062 274.785 406.035 275.145 403.688 275.145ZM432.567 274.705V251.625H423.247V246.505H448.087V251.625H438.767V274.705H432.567ZM458.321 274.705V246.505H477.641V251.345H464.241V257.945H476.761V262.825H464.241V269.865H477.641V274.705H458.321ZM489.74 274.705V246.505H495.94V269.465H508.98V274.705H489.74ZM519.869 274.705V246.505H526.069V269.465H539.109V274.705H519.869ZM546.29 274.705L559.25 246.505H564.25L577.21 274.705H570.97L568.33 268.585H555.17L552.57 274.705H546.29ZM561.69 253.105L557.25 263.745H566.29L561.77 253.105H561.69ZM586.847 274.705V246.505H599.727C602.874 246.505 605.301 247.265 607.007 248.785C608.714 250.305 609.567 252.425 609.567 255.145C609.567 257.252 609.021 259.012 607.927 260.425C606.861 261.812 605.327 262.758 603.327 263.265C604.741 263.692 605.901 264.718 606.807 266.345L611.367 274.705H604.527L599.647 265.705C599.247 264.985 598.754 264.492 598.167 264.225C597.581 263.932 596.887 263.785 596.087 263.785H593.047V274.705H586.847ZM593.047 259.305H598.607C601.941 259.305 603.607 257.972 603.607 255.305C603.607 252.665 601.941 251.345 598.607 251.345H593.047V259.305Z" fill="white"/>
<path d="M457.745 312.459C455.217 312.459 453.177 311.715 451.625 310.227C450.089 308.739 449.321 306.739 449.321 304.227C449.321 301.699 450.097 299.667 451.649 298.131C453.217 296.579 455.201 295.803 457.601 295.803C459.473 295.803 461.041 296.163 462.305 296.883V299.427C460.929 298.563 459.385 298.131 457.673 298.131C455.961 298.131 454.569 298.683 453.497 299.787C452.441 300.891 451.913 302.363 451.913 304.203C451.913 306.027 452.433 307.475 453.473 308.547C454.529 309.619 455.977 310.155 457.817 310.155C458.777 310.155 459.689 309.979 460.553 309.627V305.163H457.265V303.027H462.977V310.779H462.953L462.977 310.947C461.585 311.955 459.841 312.459 457.745 312.459ZM470.313 312.267H467.697L473.289 296.091H476.529L482.049 312.267H479.409L478.137 308.307H471.609L470.313 312.267ZM474.897 297.963C474.785 298.427 473.913 301.187 472.281 306.243H477.465C476.073 301.939 475.217 299.179 474.897 297.963ZM496.045 312.267H486.949V296.091H489.421V310.083H496.045V312.267ZM502.488 312.267H499.872L505.464 296.091H508.704L514.224 312.267H511.584L510.312 308.307H503.784L502.488 312.267ZM507.072 297.963C506.96 298.427 506.088 301.187 504.456 306.243H509.64C508.248 301.939 507.392 299.179 507.072 297.963ZM521.164 312.267H518.212L523.396 304.083L518.5 296.091H521.356L524.788 301.899L528.172 296.091H531.124L526.228 304.107L531.58 312.267H528.676L524.836 306.195L521.164 312.267ZM543.338 312.267H540.866V306.243L535.394 296.091H538.226C540.514 300.827 541.802 303.539 542.09 304.227C542.234 303.747 543.162 301.827 544.874 298.467L546.05 296.091H548.882L543.338 306.243V312.267Z" fill="#FEB544"/>
</g>
<defs>
<clipPath id="clip0_14_192">
<rect width="999" height="336" fill="white"/>
</clipPath>
<clipPath id="clip1_14_192">
<rect width="88.9383" height="88.9383" fill="white" transform="translate(454.756 30.1034)"/>
</clipPath>
</defs>
</svg>
